<svg xmlns:svg="http://www.w3.org/2000/svg" xmlns="http://www.w3.org/2000/svg" version="1.1" width="512" height="512" xml:space="preserve"><path d="m504.089 167.41c9.388-46.53-15.796-76.84-75.985-77.692-61.468-1.28-145.562 28.175-225.387 75.13 73.422-35.432 148.123-56.774 207.032-55.919 57.629 1.28 89.215 23.05 94.34 58.481M8.066 343.706C-1.753 390.235 23.432 420.542 83.62 422.249 144.663 423.958 229.184 395.357 309.862 349.683 236.013 384.259 160.885 404.748 101.977 403.04 44.349 401.333 13.188 379.136 8.066 343.706M253.484 169.607 253.484 169.607 253.484 169.607 253.484 169.607" fill="#66c659"/><path d="m253.484 169.607c-1.441 0-2.859 0.363-4.15 1.109l-69.153 39.914C177.596 212.12 176 214.87 176 217.853l0 79.86c0 2.984 1.597 5.728 4.181 7.223l69.121 39.946c2.586 1.492 5.777 1.492 8.363 0l69.153-39.946C329.4 303.441 331 300.697 331 297.713l0-79.86c0-2.987-1.596-5.732-4.181-7.222l-69.153-39.914c-1.291-0.746-2.74-1.109-4.181-1.109z" fill="#83cd29"/><path d="M228 220.395 228 298 295.149 259.231z" fill="#fff"/></svg>